<?xml version="1.0" encoding="utf-8"?>
<!-- Generator: Adobe Illustrator 16.0.0, SVG Export Plug-In . SVG Version: 6.00 Build 0)  -->
<!DOCTYPE svg PUBLIC "-//W3C//DTD SVG 1.1//EN" "http://www.w3.org/Graphics/SVG/1.1/DTD/svg11.dtd">
<svg version="1.1" id="Camada_1" xmlns="http://www.w3.org/2000/svg" xmlns:xlink="http://www.w3.org/1999/xlink" x="0px" y="0px"
	 width="168.028px" height="122.661px" viewBox="0 0 168.028 122.661" enable-background="new 0 0 168.028 122.661"
	 xml:space="preserve">
<polygon points="0,110.966 0,122.464 0.641,122.464 0.641,116.83 6.044,116.83 6.044,116.222 0.641,116.222 0.641,111.572 
	7.408,111.572 7.408,110.966 "/>
<g>
	<defs>
		<rect id="SVGID_1_" width="168.028" height="122.661"/>
	</defs>
	<clipPath id="SVGID_2_">
		<use xlink:href="#SVGID_1_"  overflow="visible"/>
	</clipPath>
	<path clip-path="url(#SVGID_2_)" d="M14.851,117.585c-0.296,0.017-1.003,0.017-1.281,0.017h-1.792v4.862h-0.64v-11.499h3.104
		c2.596,0,4.14,1.232,4.14,3.434c0,1.873-1.117,2.825-2.857,3.088l2.956,4.978h-0.788L14.851,117.585z M14.341,117.043
		c1.987,0,3.417-0.641,3.417-2.645c0-1.955-1.38-2.842-3.532-2.842h-2.448v5.486H14.341z"/>
	<path clip-path="url(#SVGID_2_)" d="M27.517,110.735c3.269,0,5.897,2.365,5.897,5.963c0,3.614-2.628,5.963-5.897,5.963
		c-3.285,0-5.896-2.349-5.896-5.963C21.621,113.101,24.232,110.735,27.517,110.735 M27.517,122.054c2.908,0,5.272-2.004,5.272-5.355
		s-2.364-5.354-5.272-5.354c-2.94,0-5.273,2.02-5.273,5.354C22.244,120.032,24.577,122.054,27.517,122.054"/>
	<path clip-path="url(#SVGID_2_)" d="M46.788,116.106c0-1.297,0.049-4.156,0.049-4.172H46.82c-0.017,0.016-0.411,0.87-1.677,3.121
		l-2.594,4.583h-0.444l-2.562-4.518c-1.315-2.316-1.693-3.171-1.708-3.187h-0.018c0,0.016,0.05,2.875,0.05,4.172v6.357h-0.641
		v-11.498h0.658l4.435,7.917h0.017l4.434-7.917h0.658v11.498h-0.641V116.106z"/>
	<polygon clip-path="url(#SVGID_2_)" points="64.209,111.573 64.209,122.464 63.585,122.464 63.585,111.573 59.396,111.573 
		59.396,110.966 68.398,110.966 68.398,111.573 	"/>
	<polygon clip-path="url(#SVGID_2_)" points="80.045,116.682 72.77,116.682 72.77,122.464 72.128,122.464 72.128,110.966 
		72.77,110.966 72.77,116.074 80.045,116.074 80.045,110.966 80.688,110.966 80.688,122.464 80.045,122.464 	"/>
	<polygon clip-path="url(#SVGID_2_)" points="85.205,110.966 92.614,110.966 92.614,111.573 85.847,111.573 85.847,116.073 
		91.252,116.073 91.252,116.682 85.847,116.682 85.847,121.856 92.631,121.856 92.631,122.465 85.205,122.465 	"/>
	<path clip-path="url(#SVGID_2_)" d="M110.035,110.735c3.271,0,5.897,2.365,5.897,5.963c0,3.614-2.627,5.963-5.897,5.963
		c-3.283,0-5.896-2.349-5.896-5.963C104.14,113.101,106.752,110.735,110.035,110.735 M110.035,122.054
		c2.907,0,5.273-2.004,5.273-5.355s-2.366-5.354-5.273-5.354c-2.938,0-5.271,2.02-5.271,5.354
		C104.764,120.032,107.097,122.054,110.035,122.054"/>
	<path clip-path="url(#SVGID_2_)" d="M130.324,119.326c-0.92,2.104-2.924,3.335-5.34,3.335c-3.301,0-5.862-2.333-5.862-5.979
		c0-3.663,2.546-5.946,5.881-5.946c2.659,0,4.45,1.429,5.156,3.039l-0.591,0.18c-0.36-0.722-1.56-2.611-4.551-2.611
		c-3.055,0-5.272,2.005-5.272,5.339c0,3.352,2.315,5.372,5.225,5.372c2.053,0,3.893-1.052,4.747-2.893L130.324,119.326z"/>
	<polygon clip-path="url(#SVGID_2_)" points="134.269,110.966 141.677,110.966 141.677,111.573 134.911,111.573 134.911,116.073 
		140.314,116.073 140.314,116.682 134.911,116.682 134.911,121.856 141.694,121.856 141.694,122.465 134.269,122.465 	"/>
	<path clip-path="url(#SVGID_2_)" d="M147.001,118.834l-1.61,3.63h-0.673l5.107-11.498h0.642l5.108,11.498h-0.674l-1.608-3.63
		H147.001z M151.534,114.891c-0.492-1.1-1.362-3.17-1.38-3.187h-0.016c-0.017,0.017-0.904,2.087-1.38,3.187l-1.512,3.368h5.782
		L151.534,114.891z"/>
	<path clip-path="url(#SVGID_2_)" d="M159.732,111.869h-0.017c0,0.016,0.05,1.298,0.05,2.693v7.901h-0.64v-11.498h0.64l7.654,10.512
		h0.017c0-0.016-0.049-1.297-0.049-2.661v-7.851h0.64v11.498h-0.64L159.732,111.869z"/>
	<path clip-path="url(#SVGID_2_)" fill="#2A2A2A" d="M108.567,21.516c-1.224-3.304-2.252-6.116-3.891-9.034
		c-0.659-1.135-1.156-2.446-1.949-3.56c-1.797-2.549-3.568-4.991-6.585-6.594c-3.209-1.753-6.771-2.239-10.064-2.321
		c-0.712-0.039-1.409,0.094-2.103,0.171c-0.608,0.1-1.226,0.202-1.821,0.301c-1.663,0.232-3.301,0.539-4.894,0.968
		c-1.58,0.446-3.172,0.875-4.579,1.72C72.428,3.32,72.14,3.479,71.86,3.522c-1.227,0.183-2.232,0.933-3.278,1.541
		c-0.481,0.284-2.756,1.819-3.266,2.197c-0.874,0.654-1.749,1.36-2.441,2.223c-0.555,0.697-1.313,1.22-1.695,1.972
		c-0.476,0.939-1.458,1.737-2.06,2.924c-1.469,2.233-1.62,5.119-1.321,7.592c0.115,1.96-0.109,3.66,0.08,5.671
		c0.043,0.461-0.01,1.284-0.001,1.787c0.02,1.67,0.115,3.348,0.395,5.113c0.115,0.658,0.251,1.329,0.472,2.047
		c0.199,0.645,0.403,1.196,0.626,1.8c0.448,1.184,0.961,2.37,1.588,3.535c1.232,2.309,3.026,4.638,5.628,6.132
		c0.688,0.347,1.428,0.608,2.157,0.878c0.294,0.173,0.595,0.313,0.717,0.341l0.355,0.105l0.71,0.209l1.425,0.413
		c0.949,0.276,1.898,0.559,2.841,0.884c0.342,0.122,0.711,0.178,1.07,0.25c1.763,0.35,3.543,0.607,5.331,0.803
		c1.686,0.2,3.814,0.358,5.72,0.183c1.018-0.071,1.957-0.187,2.868-0.294c0.906-0.114,1.65-0.169,2.62-0.238
		c0.987-0.064,2.168-0.228,3.208-0.459c1.194-0.267,2.301-0.661,3.402-1.185c1.07-0.514,2.082-1.28,3.002-2.302
		c0.158-0.187,0.202-0.508,0.202-0.744c0-0.296-0.421-0.213-0.782-0.001c-0.647,0.389-1.227,0.773-1.794,1.176
		c-0.849,0.598-1.729,1.076-2.655,1.443c-2.47,0.984-4.951,0.977-6.875,1.211c-1.285,0.153-2.636,0.278-4.071,0.387
		c-3.167,0.194-8.618-0.465-8.569-0.651c0.093-0.353,0.749-0.188,1.373-0.104c1.286,0.173,2.566,0.165,3.845,0.208
		c2.752,0.189,5.501-0.443,7.95-0.74c3.187-0.189,7.304-0.658,10.151-3.652c0.562-0.642,0.758-0.898,1.197-1.33l1.269-1.284
		c0.511-0.552,1.027-1.207,1.444-1.99c0.158-0.278,0.029-0.768-0.161-0.842c-0.199-0.079-0.607,0.057-0.766,0.245
		c-0.201,0.233-2.65,2.872-3.537,3.995c-0.979,1.212-3.508,2.839-3.673,2.56c-0.165-0.278,2.261-1.13,3.431-2.739
		c1.133-1.556,4.033-4.403,4.132-4.48c0.402-0.306,0.622-0.763,0.782-1.236c0.381-1.149,0.71-2.321,0.96-3.513
		c0.435-2.039,0.531-4.13,0.537-6.185c-0.001-2.069-0.505-4.027-1.121-5.94c-0.676-2.781-1.688-5.496-2.84-8.09
		c-1.449-3.264-3.338-6.487-6.105-8.811c-1.279-1.075-4.22-2.854-7.362-3.259c-5.05-0.855-10.6,0.317-15.263,2.074
		c-1.635,0.617-4.19,2.297-4.215,1.922c-0.024-0.376,3.24-1.687,4.932-2.367c3.698-1.507,7.633-2.642,11.772-2.75
		c0.869-0.039,1.75,0.01,2.622,0.121c1.005,0.135,4.188,0.79,6.135,1.887c3.046,1.717,3.827,2.907,4.786,4.231
		c0.898,1.239,1.498,2.476,2.345,3.747c1.011,1.528,1.602,3.04,2.369,4.786c1.225,2.778,1.906,5.695,2.574,8.814
		c0.608,2.672,0.476,5.725-0.1,8.404c-0.125,0.641-0.149,1.251,0.154,1.754c0.32,0.529,0.361,1.082,0.218,1.719
		c-0.07,0.293-0.104,0.614-0.069,0.903c0.019,0.187,0.158,0.435,0.297,0.474c0.142,0.038,0.445-0.099,0.514-0.252
		c0.229-0.493,0.408-1.029,0.537-1.573c0.331-1.41,0.549-2.893,0.668-4.409c0.054-0.587,0.152-1.199,0.104-1.785
		c-0.072-0.802-0.104-1.469,0.357-2.165c0.187-0.275,0.188-0.847,0.142-1.277C109.643,25.388,109.249,23.39,108.567,21.516
		 M71.213,47.812c0.017,0.107-0.792-0.114-0.792-0.114c-0.249-0.087-0.731-0.288-0.731-0.288c-3.027-0.755-5.373-3.065-6.869-5.608
		c-0.749-1.238-1.359-2.54-1.959-3.835c-0.963-1.876-1.455-4.229-1.572-6.313c-0.17-2.142-0.15-4.266-0.127-6.384l0.129-4
		c0.005-0.147-0.031-0.442,0.08-0.433c0.112,0.01,0.105,0.337,0.097,0.5c-0.095,2.006-0.021,4.074,0.189,6.097
		c0.128,1.255,0.121,2.528,0.22,3.795c0.104,1.299,0.27,2.6,0.6,3.873c0.344,1.27,0.887,2.427,1.453,3.583
		c1.254,3.002,3.044,5.905,5.919,7.446C68.475,46.466,71.177,47.584,71.213,47.812"/>
	<path clip-path="url(#SVGID_2_)" fill="#2A2A2A" d="M67.929,4.052c1.103-0.538,2.181-1.064,3.324-1.622
		c0.237-0.118,0.694-0.352,0.591-0.591c-0.189-0.225-2.81,0.999-4.017,1.787c-0.062,0.039-0.119,0.113-0.13,0.173
		c-0.015,0.061,0.012,0.137,0.052,0.183C67.787,4.023,67.888,4.072,67.929,4.052"/>
	<path clip-path="url(#SVGID_2_)" fill="#2A2A2A" d="M63.496,7.252c0.728-0.545,1.227-0.81,1.484-1.042
		c0.318-0.244,0.618-0.563,0.924-0.886c0.075-0.076,0.197-0.239,0.093-0.332c-0.101-0.047-0.171-0.011-0.239,0.014
		c-1.054,0.365-1.674,1.275-2.439,1.969c-0.055,0.051-0.075,0.256,0.003,0.324C63.405,7.338,63.463,7.276,63.496,7.252"/>
	<path clip-path="url(#SVGID_2_)" fill="#2A2A2A" d="M74.897,0.982c0.243-0.006,0.562-0.036,0.731-0.04
		c0.427-0.04,0.768-0.182,1.181-0.28c0.092-0.026,0.218-0.052,0.224-0.233c0.034-0.103-0.145-0.072-0.218-0.071
		c-0.669,0.016-1.357,0.049-1.944,0.369c-0.069,0.033-0.15,0.062-0.163,0.156C74.721,0.969,74.828,0.981,74.897,0.982"/>
	<polygon clip-path="url(#SVGID_2_)" fill="#2A2A2A" points="23.886,97.329 4.521,97.371 23.886,73.954 23.886,70.712 0,70.712 
		0,73.954 19.498,73.951 0,97.371 0,100.571 23.886,100.571 	"/>
	<path clip-path="url(#SVGID_2_)" fill="#2A2A2A" d="M54.12,70.113c-8.744,0-15.483,6.228-15.483,15.486
		c0,9.297,6.739,15.525,15.483,15.525c8.701,0,15.482-6.229,15.482-15.525C69.602,76.341,62.821,70.113,54.12,70.113 M54.12,97.799
		c-6.739,0-11.985-4.607-11.985-12.199c0-7.552,5.246-12.198,11.985-12.198c6.696,0,11.985,4.604,11.985,12.198
		C66.104,93.191,60.815,97.799,54.12,97.799"/>
	<path clip-path="url(#SVGID_2_)" fill="#2A2A2A" d="M106.159,88.116c0,6.482-2.688,9.683-8.486,9.683
		c-5.759,0-8.405-3.2-8.405-9.683V70.713h-3.539v17.403c0,8.445,4.181,13.009,11.944,13.009c7.719,0,11.942-4.563,11.942-13.009
		V70.713h-3.456V88.116z"/>
	<path clip-path="url(#SVGID_2_)" fill="#2A2A2A" d="M147.509,80.01c0-5.842-4.139-9.298-11.134-9.298h-9.129v29.859h3.455V88.883
		h3.67c0.641,0,2.089,0,2.73-0.042l6.78,11.73h4.182l-7.38-12.371C144.905,87.306,147.509,84.618,147.509,80.01 M136.716,85.982
		h-6.015v-12.07h5.804c4.648,0,7.465,2.005,7.465,6.228C143.97,84.447,141.068,85.982,136.716,85.982"/>
	<rect x="164.573" y="70.712" clip-path="url(#SVGID_2_)" fill="#2A2A2A" width="3.455" height="29.858"/>
</g>
</svg>
